{
    "asset" : {
        "generator" : "Khronos glTF Blender I/O v1.3.48",
        "version" : "2.0"
    },
    "scene" : 0,
    "scenes" : [
        {
            "name" : "Scene",
            "nodes" : [
                12
            ]
        }
    ],
    "nodes" : [
        {
            "name" : "EndBone",
            "rotation" : [
                0,
                1.1920926823449918e-07,
                0,
                1
            ],
            "scale" : [
                1,
                0.9999999403953552,
                1
            ],
            "translation" : [
                0,
                0.5,
                0
            ]
        },
        {
            "children" : [
                0
            ],
            "name" : "Bone.006",
            "translation" : [
                0,
                0.5,
                0
            ]
        },
        {
            "children" : [
                1
            ],
            "name" : "Bone.005",
            "translation" : [
                0,
                0.5,
                0
            ]
        },
        {
            "children" : [
                2
            ],
            "name" : "Bone.004",
            "translation" : [
                0,
                0.5,
                0
            ]
        },
        {
            "children" : [
                3
            ],
            "name" : "Bone.003",
            "translation" : [
                0,
                0.5,
                0
            ]
        },
        {
            "children" : [
                4
            ],
            "name" : "ElbowBone",
            "translation" : [
                0,
                0.5,
                0
            ]
        },
        {
            "children" : [
                5
            ],
            "name" : "Bone.002",
            "translation" : [
                0,
                0.5,
                0
            ]
        },
        {
            "children" : [
                6
            ],
            "name" : "Bone.008",
            "translation" : [
                0,
                0.5,
                0
            ]
        },
        {
            "children" : [
                7
            ],
            "name" : "Bone.001",
            "translation" : [
                0,
                0.5,
                0
            ]
        },
        {
            "children" : [
                8
            ],
            "name" : "RootBone.001",
            "translation" : [
                0,
                0.5,
                0
            ]
        },
        {
            "children" : [
                9
            ],
            "name" : "RootBone"
        },
        {
            "mesh" : 0,
            "name" : "Cube",
            "skin" : 0
        },
        {
            "children" : [
                11,
                10
            ],
            "name" : "Armature",
            "translation" : [
                0,
                0,
                0.07999999821186066
            ]
        }
    ],
    "meshes" : [
        {
            "name" : "Cube.001",
            "primitives" : [
                {
                    "attributes" : {
                        "POSITION" : 0,
                        "NORMAL" : 1,
                        "TEXCOORD_0" : 2,
                        "JOINTS_0" : 3,
                        "WEIGHTS_0" : 4
                    },
                    "indices" : 5
                }
            ]
        }
    ],
    "skins" : [
        {
            "inverseBindMatrices" : 6,
            "joints" : [
                10,
                9,
                8,
                7,
                6,
                5,
                4,
                3,
                2,
                1,
                0
            ],
            "name" : "Armature"
        }
    ],
    "accessors" : [
        {
            "bufferView" : 0,
            "componentType" : 5126,
            "count" : 1099,
            "max" : [
                0.30000001192092896,
                5,
                0.3799999952316284
            ],
            "min" : [
                -0.30000001192092896,
                0,
                -0.2200000137090683
            ],
            "type" : "VEC3"
        },
        {
            "bufferView" : 1,
            "componentType" : 5126,
            "count" : 1099,
            "type" : "VEC3"
        },
        {
            "bufferView" : 2,
            "componentType" : 5126,
            "count" : 1099,
            "type" : "VEC2"
        },
        {
            "bufferView" : 3,
            "componentType" : 5123,
            "count" : 1099,
            "type" : "VEC4"
        },
        {
            "bufferView" : 4,
            "componentType" : 5126,
            "count" : 1099,
            "type" : "VEC4"
        },
        {
            "bufferView" : 5,
            "componentType" : 5123,
            "count" : 4416,
            "type" : "SCALAR"
        },
        {
            "bufferView" : 6,
            "componentType" : 5126,
            "count" : 11,
            "type" : "MAT4"
        }
    ],
    "bufferViews" : [
        {
            "buffer" : 0,
            "byteLength" : 13188,
            "byteOffset" : 0
        },
        {
            "buffer" : 0,
            "byteLength" : 13188,
            "byteOffset" : 13188
        },
        {
            "buffer" : 0,
            "byteLength" : 8792,
            "byteOffset" : 26376
        },
        {
            "buffer" : 0,
            "byteLength" : 8792,
            "byteOffset" : 35168
        },
        {
            "buffer" : 0,
            "byteLength" : 17584,
            "byteOffset" : 43960
        },
        {
            "buffer" : 0,
            "byteLength" : 8832,
            "byteOffset" : 61544
        },
        {
            "buffer" : 0,
            "byteLength" : 704,
            "byteOffset" : 70376
        }
    ],
    "buffers" : [
        {
            "byteLength" : 71080,
            "uri" : "data:application/octet-stream;base64,"
        }
    ]
}
