{
    "asset" : {
        "generator" : "Khronos glTF Blender I/O v1.3.48",
        "version" : "2.0"
    },
    "scene" : 0,
    "scenes" : [
        {
            "name" : "Scene",
            "nodes" : [
                5
            ]
        }
    ],
    "nodes" : [
        {
            "name" : "EndBone",
            "rotation" : [
                0,
                -1.1920928955078125e-07,
                0,
                1
            ],
            "translation" : [
                0,
                1.3462061882019043,
                0
            ]
        },
        {
            "children" : [
                0
            ],
            "name" : "RootBone.003",
            "translation" : [
                0,
                1.9383621215820312,
                0
            ]
        },
        {
            "children" : [
                1
            ],
            "name" : "ElbowBone",
            "rotation" : [
                0,
                1.1920928955078125e-07,
                0,
                1
            ],
            "translation" : [
                0,
                2.346168041229248,
                0
            ]
        },
        {
            "children" : [
                2
            ],
            "name" : "RootBone"
        },
        {
            "mesh" : 0,
            "name" : "Cube",
            "skin" : 0
        },
        {
            "children" : [
                4,
                3
            ],
            "name" : "Armature"
        }
    ],
    "meshes" : [
        {
            "name" : "Cube",
            "primitives" : [
                {
                    "attributes" : {
                        "POSITION" : 0,
                        "NORMAL" : 1,
                        "TEXCOORD_0" : 2,
                        "JOINTS_0" : 3,
                        "WEIGHTS_0" : 4
                    },
                    "indices" : 5
                }
            ]
        }
    ],
    "skins" : [
        {
            "inverseBindMatrices" : 6,
            "joints" : [
                3,
                2,
                1,
                0
            ],
            "name" : "Armature"
        }
    ],
    "accessors" : [
        {
            "bufferView" : 0,
            "componentType" : 5126,
            "count" : 4960,
            "max" : [
                0.5315518975257874,
                5.947948455810547,
                0.272638738155365
            ],
            "min" : [
                -0.6223967671394348,
                -0.15653368830680847,
                -0.3010024428367615
            ],
            "type" : "VEC3"
        },
        {
            "bufferView" : 1,
            "componentType" : 5126,
            "count" : 4960,
            "type" : "VEC3"
        },
        {
            "bufferView" : 2,
            "componentType" : 5126,
            "count" : 4960,
            "type" : "VEC2"
        },
        {
            "bufferView" : 3,
            "componentType" : 5123,
            "count" : 4960,
            "type" : "VEC4"
        },
        {
            "bufferView" : 4,
            "componentType" : 5126,
            "count" : 4960,
            "type" : "VEC4"
        },
        {
            "bufferView" : 5,
            "componentType" : 5123,
            "count" : 7440,
            "type" : "SCALAR"
        },
        {
            "bufferView" : 6,
            "componentType" : 5126,
            "count" : 4,
            "type" : "MAT4"
        }
    ],
    "bufferViews" : [
        {
            "buffer" : 0,
            "byteLength" : 59520,
            "byteOffset" : 0
        },
        {
            "buffer" : 0,
            "byteLength" : 59520,
            "byteOffset" : 59520
        },
        {
            "buffer" : 0,
            "byteLength" : 39680,
            "byteOffset" : 119040
        },
        {
            "buffer" : 0,
            "byteLength" : 39680,
            "byteOffset" : 158720
        },
        {
            "buffer" : 0,
            "byteLength" : 79360,
            "byteOffset" : 198400
        },
        {
            "buffer" : 0,
            "byteLength" : 14880,
            "byteOffset" : 277760
        },
        {
            "buffer" : 0,
            "byteLength" : 256,
            "byteOffset" : 292640
        }
    ],
    "buffers" : [
        {
            "byteLength" : 292896,
            "uri" : "data:application/octet-stream;base64,"
        }
    ]
}
